<svg xmlns="http://www.w3.org/2000/svg" width="77.326" height="78.216" viewBox="0 0 77.326 78.216"><defs><style>.a{fill:#6bb8f5;}.b{fill:#cee9ff;}.c{fill:#ecf4f7;}.d{fill:#1486e7;}.e{fill:#1c1d21;}</style></defs><g transform="translate(-314.271 -577.143)"><path class="a" d="M335.332,641.86l-.025-30.48a6.126,6.126,0,0,0-2.322-4.774l-10.107-8h0V586.291a2.082,2.082,0,1,0-4.164,0,2.082,2.082,0,1,0-4.164,0v11.636a6.113,6.113,0,0,0,1.792,4.324l8.427,8.424A6.122,6.122,0,0,1,326.558,615V641.86Z" transform="translate(0.502 12.718)"/><path class="a" d="M352.881,584.207a2.083,2.083,0,0,0-2.081,2.084,2.082,2.082,0,1,0-4.164,0V598.61l-10.107,8a6.115,6.115,0,0,0-2.319,4.774l-.028,30.48h8.774V615a6.122,6.122,0,0,1,1.789-4.324l8.427-8.424a6.114,6.114,0,0,0,1.792-4.324V586.291A2.083,2.083,0,0,0,352.881,584.207Z" transform="translate(35.85 12.718)"/><g transform="translate(327.061 641.75)"><rect class="b" width="8.769" height="12.828"/></g><g transform="translate(327.061 637.604)"><rect class="c" width="8.769" height="4.145"/></g><g transform="translate(370.033 637.604)"><rect class="c" width="8.769" height="4.145"/></g><g transform="translate(323.383 577.924)"><rect class="b" width="59.101" height="35.538" rx="1.516"/></g><g transform="translate(370.038 641.75)"><rect class="b" width="8.769" height="12.828"/></g><g transform="translate(329.665 586.556)"><path class="d" d="M323.255,589.667,329.4,588v-5.727l-6.144-1.669a2.762,2.762,0,0,0-3.487,2.666V587A2.763,2.763,0,0,0,323.255,589.667Z" transform="translate(-319.768 -580.504)"/></g><g transform="translate(339.296 587.463)"><path class="c" d="M330.368,587.414h0a7.891,7.891,0,0,1-7.161,0h0v-5.727h0a7.891,7.891,0,0,1,7.161,0h0Z" transform="translate(-323.207 -580.828)"/></g><g transform="translate(329.144 594.049)"><path class="d" d="M323.206,584.925l-3.624,8.02,4.349-3.271.42,5.424,5.382-11.918h0l-6.141,1.669A3.217,3.217,0,0,1,323.206,584.925Z" transform="translate(-319.582 -583.18)"/></g><g transform="translate(346.456 586.556)"><path class="d" d="M331.908,589.667,325.764,588v-5.727l6.144-1.669a2.763,2.763,0,0,1,3.487,2.666V587A2.764,2.764,0,0,1,331.908,589.667Z" transform="translate(-325.764 -580.504)"/></g><g transform="translate(346.456 594.049)"><path class="d" d="M332.289,584.925l3.624,8.02-4.346-3.271-.42,5.424-5.382-11.918h0l6.144,1.669A3.067,3.067,0,0,0,332.289,584.925Z" transform="translate(-325.764 -583.18)"/></g><path class="e" d="M388.732,596.144a2.838,2.838,0,0,0-2.081.9,2.85,2.85,0,0,0-2.084-.9,2.819,2.819,0,0,0-1.3.316V582.173a5.035,5.035,0,0,0-5.03-5.029H327.629a5.032,5.032,0,0,0-5.027,5.029v1.442a.781.781,0,0,0,1.563,0v-1.442a3.469,3.469,0,0,1,3.464-3.467h14.464v8.018a8.626,8.626,0,0,0-2.87.767l-5.867-1.591a3.542,3.542,0,0,0-4.472,3.419v1.633h-4.719v-1.235a.781.781,0,1,0-1.563,0v6.743a2.847,2.847,0,0,0-3.386.588,2.838,2.838,0,0,0-2.081-.9,2.868,2.868,0,0,0-2.865,2.865v11.636a6.848,6.848,0,0,0,2.019,4.875l8.426,8.427a5.3,5.3,0,0,1,1.563,3.769v26.862a.782.782,0,0,0,.781.781h0a.782.782,0,0,0,.781-.781V642.533h7.2l.011,12.045a.782.782,0,0,0,.781.781h0a.782.782,0,0,0,.781-.781l-.011-12.829h0l-.006-3.994a.7.7,0,0,0,0-.305L336.59,624.1a6.862,6.862,0,0,0-2.618-5.385l-5.643-4.467h49.212L371.9,618.71a6.862,6.862,0,0,0-2.618,5.385l-.011,13.355a.7.7,0,0,0,0,.305l-.017,16.822a.782.782,0,0,0,.781.781h0a.782.782,0,0,0,.781-.781l.011-12.045h7.2v12.045a.781.781,0,1,0,1.563,0V627.716a5.3,5.3,0,0,1,1.563-3.769l8.426-8.427a6.848,6.848,0,0,0,2.019-4.875V599.009A2.868,2.868,0,0,0,388.732,596.144Zm-4.164,1.565a1.3,1.3,0,0,1,1.3,1.3v6.066a5.3,5.3,0,0,1-2.022,4.181l-.577.457v-10.7A1.3,1.3,0,0,1,384.567,597.709Zm-46.666-2.47-3.445,7.623-.185-2.378a.782.782,0,0,0-1.249-.566l-1.907,1.434,2.2-4.87.042-.011h0l1.507-.409Zm2.176-6.421a7.135,7.135,0,0,1,5.6,0v4.733a7.112,7.112,0,0,1-5.6,0Zm3.582,6.83a8.666,8.666,0,0,0,2.4-.568l5.063,11.21a.787.787,0,0,0,.714.459.725.725,0,0,0,.134-.011.776.776,0,0,0,.644-.708l.311-4,3.206,2.411a.783.783,0,0,0,1.185-.947L354.16,596.5a3.559,3.559,0,0,0,2.708-3.447v-.535H381.7v16.7a3.468,3.468,0,0,1-3.464,3.464h-34.58Zm3.579-2.2v-4.531l5.567-1.509a1.976,1.976,0,0,1,2.5,1.91v3.733a1.973,1.973,0,0,1-2.24,1.96l-.07-.011a1.4,1.4,0,0,1-.188-.039h0Zm5.158,3.022.039.011,2.2,4.87-1.907-1.434a.784.784,0,0,0-1.252.566l-.182,2.378-3.445-7.623Zm25.842-17.766a3.469,3.469,0,0,1,3.464,3.467v8.779H356.868v-1.633A3.544,3.544,0,0,0,352.4,585.9l-5.867,1.591a8.663,8.663,0,0,0-2.87-.767v-8.018Zm-47.792,10.614a1.97,1.97,0,0,1,2.5-1.91l5.564,1.509v4.531l-2.134.583-3.431.93-.006,0c-.062.014-.12.028-.182.036l-.07.011a1.977,1.977,0,0,1-2.243-1.96Zm-1.563,3.2v.535a3.52,3.52,0,0,0,1.389,2.815,3.573,3.573,0,0,0,1.319.633l-3.159,6.993a.781.781,0,0,0,1.182.947l3.206-2.411.311,4a.783.783,0,0,0,1.493.26l5.063-11.21a8.663,8.663,0,0,0,2.406.568v17.032H327.629a3.468,3.468,0,0,1-3.464-3.464v-16.7Zm-7.584,5.192a1.3,1.3,0,0,1,1.3,1.3v10.7l-.577-.457A5.3,5.3,0,0,1,320,605.075v-6.066A1.3,1.3,0,0,1,321.3,597.709Zm6.542,43.258v-2.582h7.2l0,2.582Zm7.183-16.87.011,12.725h-7.194v-9.107a6.849,6.849,0,0,0-2.019-4.876l-8.427-8.426a5.306,5.306,0,0,1-1.56-3.769V599.009a1.3,1.3,0,0,1,2.6,0v6.066a6.855,6.855,0,0,0,2.618,5.408L333,619.936A5.307,5.307,0,0,1,335.025,624.1Zm35.8,16.87,0-2.582h7.2v2.582Zm19.205-30.323a5.305,5.305,0,0,1-1.56,3.769l-8.426,8.426a6.849,6.849,0,0,0-2.019,4.876v9.107h-7.194l.011-12.722a5.308,5.308,0,0,1,2.022-4.164l11.952-9.454a6.861,6.861,0,0,0,2.616-5.408v-6.066a1.3,1.3,0,0,1,2.6,0ZM322.6,586.9v-.625a.781.781,0,1,1,1.563,0v.625a.781.781,0,0,1-1.563,0Z" transform="translate(0 0)"/></g></svg>