<svg xmlns="http://www.w3.org/2000/svg" width="77.32" height="78.23" viewBox="0 0 77.32 78.23"><path d="M21.56,77.43V47a6.13,6.13,0,0,0-2.32-4.77l-10.11-8h0V21.87a2.08,2.08,0,1,0-4.16,0H5a2.11,2.11,0,1,0-4.2-.29,1.41,1.41,0,0,0,0,.29V33.5a6.17,6.17,0,0,0,1.79,4.33L11,46.25a6.1,6.1,0,0,1,1.79,4.32V77.43Z" transform="translate(0)" fill="#6bb8f5"/><path d="M74.46,19.78a2.09,2.09,0,0,0-2.08,2.09,2.08,2.08,0,0,0-4.16,0h0V34.18l-10.11,8A6.15,6.15,0,0,0,55.79,47V77.48h8.77V50.57a6.19,6.19,0,0,1,1.79-4.32l8.43-8.42a6.12,6.12,0,0,0,1.79-4.33V21.87a2.09,2.09,0,0,0-2.08-2.09Z" transform="translate(0)" fill="#6bb8f5"/><rect x="12.79" y="64.61" width="8.77" height="12.83" fill="#cee9ff"/><rect x="12.79" y="60.46" width="8.77" height="4.14" fill="#ecf4f7"/><rect x="55.76" y="60.46" width="8.77" height="4.14" fill="#ecf4f7"/><rect x="9.11" y="0.78" width="59.1" height="35.54" rx="1.52" fill="#cee9ff"/><rect x="55.77" y="64.61" width="8.77" height="12.83" fill="#cee9ff"/><path d="M18.88,18.58,25,16.91V11.18L18.88,9.51a2.76,2.76,0,0,0-3.39,1.94h0a3,3,0,0,0-.1.73v3.73a2.77,2.77,0,0,0,2.77,2.76A3,3,0,0,0,18.88,18.58Z" transform="translate(0)" fill="#1486e7"/><path d="M32.19,16.91h0a7.94,7.94,0,0,1-7.17,0h0V11.18h0a7.88,7.88,0,0,1,7.17,0h0Z" transform="translate(0)" fill="#ecf4f7"/><path d="M18.5,18.65l-3.63,8,4.35-3.27.42,5.42L25,16.91h0l-6.14,1.67Z" transform="translate(0)" fill="#1486e7"/><path d="M38.33,18.58l-6.15-1.67V11.18l6.15-1.67a2.76,2.76,0,0,1,3.37,2v0h0a2.91,2.91,0,0,1,.1.72V16a2.78,2.78,0,0,1-2.76,2.76h0A2.92,2.92,0,0,1,38.33,18.58Z" transform="translate(0)" fill="#1486e7"/><path d="M38.71,18.65l3.62,8L38,23.4l-.42,5.42L32.19,16.91h0l6.14,1.67Z" transform="translate(0)" fill="#1486e7"/><path d="M74.46,19a2.83,2.83,0,0,0-2.08.9A2.87,2.87,0,0,0,70.3,19a2.81,2.81,0,0,0-1.3.32V5a5,5,0,0,0-5-5H13.36a5,5,0,0,0-5,5V6.47a.78.78,0,0,0,1.56,0V5a3.49,3.49,0,0,1,3.47-3.47H27.82v8A8.89,8.89,0,0,0,25,10.3L19.08,8.76a3.53,3.53,0,0,0-4.34,2.47h0a3.33,3.33,0,0,0-.13.94V13.8H9.89V12.57a.78.78,0,1,0-1.56,0v6.75A2.83,2.83,0,0,0,5,19.91,2.81,2.81,0,0,0,2.86,19,2.86,2.86,0,0,0,0,21.86H0V33.51a6.83,6.83,0,0,0,2,4.87l8.42,8.43A5.28,5.28,0,0,1,12,50.58V77.44a.78.78,0,0,0,.78.78h0a.78.78,0,0,0,.78-.78v-12h7.2v12a.78.78,0,0,0,.77.79h0a.78.78,0,0,0,.78-.78h0V64.61h0v-4a.76.76,0,0,0,0-.3V47a6.87,6.87,0,0,0-2.62-5.39L14.06,37.1H63.27l-5.64,4.47A6.86,6.86,0,0,0,55,47V60.31a.76.76,0,0,0,0,.3V77.43a.8.8,0,0,0,.78.79h0a.81.81,0,0,0,.79-.79v-12h7.2v12a.78.78,0,1,0,1.56,0V50.57a5.34,5.34,0,0,1,1.56-3.77l8.43-8.42a6.87,6.87,0,0,0,2-4.88V21.87A2.87,2.87,0,0,0,74.46,19ZM70.3,20.57a1.3,1.3,0,0,1,1.3,1.3h0v6.06a5.3,5.3,0,0,1-2,4.18l-.57.46V21.87a1.32,1.32,0,0,1,1.29-1.3ZM23.63,18.1l-3.44,7.62L20,23.34a.78.78,0,0,0-.84-.72h0a.77.77,0,0,0-.41.16l-1.91,1.43L19,19.34h.05l1.5-.41Zm2.18-6.43a7.16,7.16,0,0,1,5.6,0v4.74a7.16,7.16,0,0,1-5.6,0Zm3.58,6.84a9,9,0,0,0,2.4-.57l5.06,11.21a.79.79,0,0,0,.72.46h.13a.8.8,0,0,0,.64-.71l.31-4,3.21,2.41a.78.78,0,0,0,1.1-.1l0-.05h0a.8.8,0,0,0,.09-.79l-3.16-7a3.57,3.57,0,0,0,2.71-3.45v-.53H67.43v16.7A3.46,3.46,0,0,1,64,35.54H29.39ZM33,16.3V11.77l5.56-1.5A2,2,0,0,1,41,11.65a1.52,1.52,0,0,1,.07.52v3.74a2,2,0,0,1-2,2h-.53Zm5.16,3h0l2.2,4.87-1.9-1.44a.78.78,0,0,0-1.09.15h0a.76.76,0,0,0-.15.41L37,25.72l-3.44-7.63ZM64,1.56A3.46,3.46,0,0,1,67.43,5v8.78H42.6V12.17a3.52,3.52,0,0,0-4.47-3.41l-5.87,1.59a8.73,8.73,0,0,0-2.87-.77v-8ZM16.18,12.17a2,2,0,0,1,1.95-2,2,2,0,0,1,.55.08l5.56,1.5V16.3l-2.13.59-3.44.93h-.25a2,2,0,0,1-2.23-1.69v-4Zm-1.57,3.21v.53A3.53,3.53,0,0,0,16,18.72a3.6,3.6,0,0,0,1.32.64l-3.16,7a.79.79,0,0,0,.39,1,.78.78,0,0,0,.79-.09l3.21-2.41.31,4a.77.77,0,0,0,.82.71h0a.75.75,0,0,0,.64-.45l5.07-11.21a8.65,8.65,0,0,0,2.4.56v17H13.36A3.49,3.49,0,0,1,9.89,32V15.37ZM7,20.57a1.3,1.3,0,0,1,1.3,1.3v10.7l-.58-.46a5.3,5.3,0,0,1-2-4.18V21.87A1.3,1.3,0,0,1,7,20.57Zm6.54,43.26V61.24h7.2v2.59ZM20.75,47V59.68H13.57V50.57a6.83,6.83,0,0,0-2-4.87L3.12,37.27A5.34,5.34,0,0,1,1.56,33.5V21.87a1.3,1.3,0,1,1,2.6,0h0v6.06a6.88,6.88,0,0,0,2.62,5.41l12,9.45a5.29,5.29,0,0,1,2,4.17Zm35.8,16.87V61.24h7.2v2.59ZM75.76,33.5a5.34,5.34,0,0,1-1.56,3.77L65.77,45.7a6.89,6.89,0,0,0-2,4.87v9.11H56.56V47a5.32,5.32,0,0,1,2-4.17l12-9.45A6.85,6.85,0,0,0,73.18,28V21.9a1.3,1.3,0,1,1,2.6,0h0ZM8.33,9.76V9.13a.78.78,0,0,1,1.56,0v.63a.78.78,0,0,1-1.56,0Z" transform="translate(0)" fill="#1c1d21"/></svg>