<svg xmlns="http://www.w3.org/2000/svg" width="31.925" height="16.419" viewBox="0 0 31.925 16.419"><path d="M-34.664-16.967H-5.3a1.279,1.279,0,0,0,1.278-1.278A1.279,1.279,0,0,0-5.3-19.523H-34.664a1.279,1.279,0,0,0-1.278,1.278A1.279,1.279,0,0,0-34.664-16.967Zm0,6.923H-5.3a1.265,1.265,0,0,0,1.278-1.262A1.272,1.272,0,0,0-5.3-12.6H-34.664a1.272,1.272,0,0,0-1.278,1.295A1.265,1.265,0,0,0-34.664-10.044Zm0,6.939H-5.3A1.268,1.268,0,0,0-4.018-4.383,1.268,1.268,0,0,0-5.3-5.661H-34.664a1.268,1.268,0,0,0-1.278,1.278A1.268,1.268,0,0,0-34.664-3.1Z" transform="translate(35.942 19.523)" fill="currentColor"/></svg>
