<svg xmlns="http://www.w3.org/2000/svg" width="48" height="48" viewBox="0 0 48 48"><circle cx="24" cy="24" r="24" fill="none"/><circle cx="24" cy="24" r="23.5" fill="none" stroke="#e8f4fd" stroke-miterlimit="10"/><path d="M24,32c-2.14,0-2.43,0-3.3-.05-2.91-.13-4.52-1.74-4.65-4.65,0-.85-.05-1.14-.05-3.3s0-2.45.05-3.3c.13-2.91,1.74-4.52,4.65-4.65.86,0,1.12-.05,3.3-.05s2.45,0,3.3.05c2.91.13,4.52,1.74,4.65,4.65,0,.87.05,1.16.05,3.3s0,2.43-.05,3.3c-.13,2.91-1.74,4.52-4.65,4.65C26.43,32,26.15,32,24,32Zm0-14.56H20.77c-2.17.1-3.18,1.11-3.28,3.28v6.46c.1,2.17,1.11,3.18,3.28,3.28h6.46c2.17-.1,3.18-1.11,3.28-3.28V20.72c-.1-2.17-1.11-3.18-3.28-3.28Zm0,10.67A4.11,4.11,0,1,1,28.11,24h0A4.11,4.11,0,0,1,24,28.11Zm0-6.78A2.67,2.67,0,1,0,26.67,24,2.68,2.68,0,0,0,24,21.33Zm4.27-.64a1,1,0,1,1,1-1A1,1,0,0,1,28.27,20.69Z" fill="#1486e7"/></svg>