<svg xmlns="http://www.w3.org/2000/svg" width="14.35" height="11.24" viewBox="0 0 14.35 11.24"><path d="M7.19,6.34A1.14,1.14,0,0,0,8,5.93L13.62.35A1.93,1.93,0,0,0,12.3,0H1.88A1.68,1.68,0,0,0,.73.32L6.39,5.93A1.14,1.14,0,0,0,7.19,6.34Zm-7,3.83,4.6-4.55L.17,1.08A2,2,0,0,0,0,2V9.19a2.06,2.06,0,0,0,.17,1Zm14,0a2.14,2.14,0,0,0,.15-1V2a2.14,2.14,0,0,0-.15-1L9.62,5.62ZM2.06,11.23H12.48a1.66,1.66,0,0,0,1.16-.32L9,6.26l-.42.43a1.93,1.93,0,0,1-1.34.63A1.93,1.93,0,0,1,5.9,6.69l-.42-.43L.76,10.9A2,2,0,0,0,2.06,11.23Z" transform="translate(0.01 0)" fill="#1486e7"/></svg>