<svg xmlns="http://www.w3.org/2000/svg" width="14.362" height="11.218" viewBox="0 0 14.362 11.218"><defs><style>.a{fill:#1486e7;}</style></defs><path class="a" d="M8.839-3.937a1.152,1.152,0,0,0,.807-.41l5.626-5.578a1.933,1.933,0,0,0-1.326-.342H3.527a1.649,1.649,0,0,0-1.148.314l5.66,5.605A1.139,1.139,0,0,0,8.839-3.937ZM1.818-.109,6.412-4.662,1.812-9.2a2.078,2.078,0,0,0-.164.971v7.144A2.01,2.01,0,0,0,1.818-.109ZM15.853-.123a2.176,2.176,0,0,0,.157-.964V-8.23a2.162,2.162,0,0,0-.157-.957L11.266-4.662ZM3.712.95H14.13A1.681,1.681,0,0,0,15.285.636L10.6-4.013l-.424.424a1.911,1.911,0,0,1-1.34.629A1.911,1.911,0,0,1,7.5-3.589l-.424-.424L2.406.622A1.989,1.989,0,0,0,3.712.95Z" transform="translate(-1.647 10.268)"/></svg>