<svg xmlns="http://www.w3.org/2000/svg" width="37.61" height="53" viewBox="0 0 37.61 53"><defs><style>.a{fill:currentColor;stroke:rgba(0,0,0,0);stroke-miterlimit:10;}</style></defs><path class="a" d="M-7648.978-4055.935l-2.266-1.707-2.655.889a.593.593,0,0,1-.676-.23l-1.653-2.357-2.787-.017a.613.613,0,0,1-.576-.438l-.875-2.777-2.647-.92a.636.636,0,0,1-.415-.6l-.018-2.927-2.248-1.733a.665.665,0,0,1-.22-.708l.848-2.789-1.627-2.376a.669.669,0,0,1,0-.747l1.627-2.376-.848-2.787a.667.667,0,0,1,.22-.709l2.248-1.733.018-2.927a.639.639,0,0,1,.415-.6l2.647-.919.875-2.778a.615.615,0,0,1,.576-.439l2.134-.012-3.071-16.393a.662.662,0,0,1,.247-.649.584.584,0,0,1,.349-.114.585.585,0,0,1,.313.089l3.833,2.412,2.615-2.349c.009-.006.018-.013.029-.019h0l.018-.013.018-.013,0,0a.17.17,0,0,1,.03-.022.039.039,0,0,1,.013-.006h0s0,0,.005,0a.458.458,0,0,1,.081-.034c.023-.007.052-.02.077-.025s.043,0,.064-.005l.021,0h.083a.5.5,0,0,1,.057.01l.024.007.014,0h.007a.606.606,0,0,1,.062.016.03.03,0,0,0,.012,0l.008,0a.342.342,0,0,1,.037.022.121.121,0,0,0,.024.016l.011,0,0,0c.011.008.026.013.038.021l3.223,2.389,3.232-2.389c.01-.008.024-.012.034-.019l.021-.01.021-.015c.013-.009.025-.016.037-.022s0,0,.01,0a.013.013,0,0,0,.008,0,.514.514,0,0,1,.075-.02l.014,0,.028-.007.047-.008h.088l.02,0a.492.492,0,0,1,.058.005c.024.005.046.015.068.021l.013,0,.011,0a.379.379,0,0,1,.07.029h.006a.119.119,0,0,1,.018.007.066.066,0,0,1,.021.018l.027.021.021.015h0a.12.12,0,0,1,.024.017l2.615,2.349,3.832-2.412a.6.6,0,0,1,.314-.089.585.585,0,0,1,.349.114.661.661,0,0,1,.248.649l-3.07,16.393,2.13.012a.612.612,0,0,1,.574.439l.878,2.778,2.647.919a.637.637,0,0,1,.417.6l.015,2.926,2.248,1.733a.661.661,0,0,1,.219.709l-.846,2.787,1.624,2.376a.662.662,0,0,1,0,.747l-1.624,2.376.846,2.789a.658.658,0,0,1-.219.708l-2.248,1.733-.015,2.927a.634.634,0,0,1-.417.6l-2.647.92-.878,2.777a.61.61,0,0,1-.574.438l-2.788.017-1.653,2.357a.592.592,0,0,1-.675.23l-2.657-.889-2.265,1.707a.579.579,0,0,1-.356.12A.575.575,0,0,1-7648.978-4055.935Zm-1.8-2.931,2.156,1.625,2.159-1.625a.591.591,0,0,1,.54-.091l2.531.846,1.574-2.246a.605.605,0,0,1,.489-.261l2.656-.015.836-2.647a.616.616,0,0,1,.386-.405l2.52-.878.016-2.789a.656.656,0,0,1,.25-.51l2.141-1.652-.809-2.656a.675.675,0,0,1,.085-.568l1.551-2.265-1.551-2.266a.67.67,0,0,1-.085-.566l.809-2.656-2.141-1.651a.656.656,0,0,1-.25-.511l-.016-2.788-2.52-.877a.617.617,0,0,1-.386-.406l-.836-2.646-2.656-.016a.6.6,0,0,1-.489-.26l-1.574-2.248-2.531.848a.581.581,0,0,1-.54-.09l-2.159-1.625-2.156,1.625a.583.583,0,0,1-.54.09l-2.533-.848-1.572,2.248a.6.6,0,0,1-.487.26l-2.658.016-.837,2.646a.617.617,0,0,1-.387.406l-2.52.877-.015,2.788a.654.654,0,0,1-.249.511l-2.14,1.651.807,2.656a.664.664,0,0,1-.086.566l-1.55,2.266,1.55,2.265a.668.668,0,0,1,.086.568l-.807,2.656,2.14,1.652a.654.654,0,0,1,.249.51l.015,2.789,2.52.878a.615.615,0,0,1,.387.405l.837,2.647,2.658.015a.606.606,0,0,1,.487.261l1.572,2.246,2.533-.846a.591.591,0,0,1,.185-.031A.6.6,0,0,1-7650.78-4058.866Zm8.109-34.156,1.193,1.7,2.729-14.57-3.033,1.91a.6.6,0,0,1-.314.092.6.6,0,0,1-.4-.156l-2.022-1.816-.829,13.277,2-.67a.6.6,0,0,1,.186-.03A.6.6,0,0,1-7642.671-4093.021Zm-13.092,1.7,1.189-1.7a.593.593,0,0,1,.676-.23l2,.671-.039-.653-.789-12.626-2.023,1.816a.588.588,0,0,1-.4.156.577.577,0,0,1-.311-.092l-3.035-1.91Zm7.5-2.745,1.715,1.291.818-13.1-2.539,1.877a.584.584,0,0,1-.351.114.586.586,0,0,1-.351-.114l-2.531-1.876.816,13.1,1.712-1.289a.583.583,0,0,1,.354-.12A.585.585,0,0,1-7648.268-4094.068ZM-7661.742-4075c0-7.591,5.886-13.766,13.118-13.766s13.12,6.175,13.12,13.766-5.887,13.769-13.12,13.769S-7661.742-4067.41-7661.742-4075Zm1.217,0c0,6.887,5.341,12.491,11.9,12.491s11.9-5.6,11.9-12.491-5.341-12.488-11.9-12.488S-7660.525-4081.889-7660.525-4075Zm16.774,7.845-4.872-2.686-4.87,2.686a.582.582,0,0,1-.643-.049.655.655,0,0,1-.242-.624l.931-5.693-3.939-4.03a.665.665,0,0,1-.156-.657.611.611,0,0,1,.493-.432l5.446-.832,2.434-5.179a.62.62,0,0,1,1.093,0l2.437,5.179,5.445.832a.617.617,0,0,1,.493.432.67.67,0,0,1-.156.657l-3.941,4.03.932,5.693a.651.651,0,0,1-.244.624.579.579,0,0,1-.357.123A.572.572,0,0,1-7643.751-4067.158Zm-4.587-3.974,4.063,2.24-.778-4.746a.655.655,0,0,1,.176-.566l3.286-3.363-4.542-.692a.607.607,0,0,1-.458-.35l-2.032-4.32-2.03,4.32a.612.612,0,0,1-.46.35l-4.542.692,3.287,3.363a.665.665,0,0,1,.177.566l-.777,4.746,4.063-2.24a.582.582,0,0,1,.282-.073A.6.6,0,0,1-7648.338-4071.132Z" transform="translate(7667.428 4108.314)"/></svg>
