<svg xmlns="http://www.w3.org/2000/svg" width="36.59" height="51.98" viewBox="0 0 36.59 51.98"><path d="M17.93,51.89l-2.27-1.71L13,51.07a.6.6,0,0,1-.68-.23l-1.65-2.33H7.89a.63.63,0,0,1-.57-.44l-.84-2.82-2.64-.92a.61.61,0,0,1-.42-.6V40.8L1.11,39.07a.68.68,0,0,1-.22-.71l.85-2.79L.12,33.2a.65.65,0,0,1,0-.75l1.62-2.37L.89,27.29a.68.68,0,0,1,.22-.71l2.25-1.73V21.92a.64.64,0,0,1,.42-.6l2.7-.92.88-2.78a.63.63,0,0,1,.57-.44h2.14L7,.78A.65.65,0,0,1,7.2.13.61.61,0,0,1,7.55,0,.72.72,0,0,1,7.87.1L11.7,2.51,14.31.17h.51l3.45,2.34L21.48.12H22l2.91,2.39L28.69.09A.56.56,0,0,1,29,0a.55.55,0,0,1,.35.12.65.65,0,0,1,.25.65L26.53,17.16h2.13a.59.59,0,0,1,.57.44l.88,2.78,2.65.92a.64.64,0,0,1,.42.6v2.92l2.3,1.75a.65.65,0,0,1,.22.7l-.85,2.79,1.63,2.38a.66.66,0,0,1,0,.74l-1.63,2.38.85,2.79a.66.66,0,0,1-.22.71l-2.25,1.73v2.93a.64.64,0,0,1-.42.6l-2.65.92L29.28,48a.59.59,0,0,1-.57.44H25.92l-1.65,2.36a.6.6,0,0,1-.68.23l-2.65-.89-2.27,1.7a.5.5,0,0,1-.35.12A.49.49,0,0,1,17.93,51.89ZM16.13,49l2.16,1.62L20.48,49a.58.58,0,0,1,.54-.09l2.46.84,1.61-2.2a.59.59,0,0,1,.49-.26h2.65l.84-2.74a.6.6,0,0,1,.39-.4L32,43.23V40.51a.68.68,0,0,1,.25-.51l2.15-1.69-.8-2.66a.65.65,0,0,1,.08-.56l1.55-2.27-1.55-2.31a.65.65,0,0,1-.08-.56l.8-2.66-2.14-1.65a.63.63,0,0,1-.25-.51V22.38l-2.51-.87a.64.64,0,0,1-.39-.41l-.84-2.65H25.58a.59.59,0,0,1-.49-.26l-1.61-2.26L21,16.78a.58.58,0,0,1-.54-.09l-2.16-1.63-2.16,1.63a.58.58,0,0,1-.54.09L13,15.93l-1.54,2.25a.59.59,0,0,1-.49.26H8.34L7.48,21.1a.62.62,0,0,1-.38.41l-2.52.87v2.79a.63.63,0,0,1-.25.51L2.19,27.33,3,30a.62.62,0,0,1-.09.56L1.36,32.82l1.55,2.27a.62.62,0,0,1,.09.56l-.81,2.66L4.33,40a.65.65,0,0,1,.25.55V43.3l2.52.88a.6.6,0,0,1,.38.33l.84,2.65H11a.6.6,0,0,1,.5.35l1.57,2.24,2.53-.84h.19a.55.55,0,0,1,.35.12ZM24.24,14.8l1.24,1.71L28.16,1.93l-3,1.91a.62.62,0,0,1-.32.09.59.59,0,0,1-.4-.15L22.44,2l-.83,13.28,2-.67h.19a.59.59,0,0,1,.49.26ZM11.15,16.51l1.19-1.7a.59.59,0,0,1,.67-.23l2,.67V14.6L14.18,2l-2,1.82a.59.59,0,0,1-.4.16.57.57,0,0,1-.31-.1l-3-1.91Zm7.5-2.74,1.71,1.29L21.18,2,18.64,3.82a.57.57,0,0,1-.7,0L15.41,2l.81,13.1,1.72-1.29a.57.57,0,0,1,.7,0ZM5.17,32.82c0-7.59,5.88-13.76,13.11-13.76S31.4,25.23,31.4,32.82,25.48,46.59,18.28,46.59,5.17,40.41,5.17,32.82Zm1.21,0c0,6.89,5.34,12.49,11.9,12.49s11.9-5.6,11.9-12.49-5.34-12.48-11.9-12.48S6.38,25.94,6.38,32.82Zm16.78,7.85L18.28,38l-4.87,2.69a.61.61,0,0,1-.64,0,.64.64,0,0,1-.24-.62l.93-5.7-3.94-4a.63.63,0,0,1-.15-.65.6.6,0,0,1,.49-.44l5.44-.83,2.44-5.18a.62.62,0,0,1,.84-.25.75.75,0,0,1,.25.25l2.44,5.18,5.44.83a.63.63,0,0,1,.5.44.65.65,0,0,1-.16.65l-3.94,4,.93,5.7a.64.64,0,0,1-.24.62.58.58,0,0,1-.36.12.55.55,0,0,1-.28-.07Zm-4.59-4,4.06,2.24-.77-4.74A.66.66,0,0,1,22,33.6l3.29-3.36-4.55-.69a.58.58,0,0,1-.45-.35l-2-4.32-2,4.32a.59.59,0,0,1-.46.35l-4.54.69,3.29,3.36a.69.69,0,0,1,.18.57L14,38.91l4.06-2.24a.64.64,0,0,1,.57,0Z" transform="translate(0 0)"/></svg>