<svg xmlns="http://www.w3.org/2000/svg" width="80.906" height="88.17" viewBox="0 0 80.906 88.17"><defs><style>.a,.e{fill:#cee9ff;}.b,.g{fill:#6bb8f5;}.c{fill:none;}.c,.d,.e,.f,.g,.h{stroke:#37474f;stroke-linecap:round;stroke-linejoin:round;}.d{fill:#fff;}.f{fill:#1486e7;}.h{fill:#ffca28;}</style></defs><g transform="translate(-277.905 -2822.385)"><path class="a" d="M328.773,2864.13c0,12.838-7.8,23.245-17.434,23.245-8.088,0-14.89-7.344-16.859-17.3a30.054,30.054,0,0,1-.535-4.36q-.041-.782-.041-1.581,0-1.41.123-2.776a29.812,29.812,0,0,1,.713-4.36c2.259-9.346,8.836-16.108,16.6-16.108C320.968,2840.885,328.773,2851.293,328.773,2864.13Z" transform="translate(7.019 8.151)"/><path class="b" d="M294.848,2861.373a31.508,31.508,0,0,1,3.378-14.4H298.1a7.265,7.265,0,0,0-6.921,5.059l-5.595,17.552a3.632,3.632,0,0,0,3.461,4.734h3.02a10.84,10.84,0,0,0,4.977-1.21A32.112,32.112,0,0,1,294.848,2861.373Z" transform="translate(3.17 10.908)"/><path class="b" d="M330.227,2869.585l-5.595-17.552a7.263,7.263,0,0,0-6.921-5.059h-.131a31.508,31.508,0,0,1,3.378,14.4,32.14,32.14,0,0,1-2.188,11.736,10.835,10.835,0,0,0,4.976,1.21h3.02A3.632,3.632,0,0,0,330.227,2869.585Z" transform="translate(17.74 10.908)"/><path class="c" d="M336.754,2887.414H285.905a10.272,10.272,0,0,0,0-14.529h50.849a7.264,7.264,0,0,1,7.264,7.264h0A7.264,7.264,0,0,1,336.754,2887.414Z" transform="translate(3.396 22.642)"/><path class="c" d="M335.3,2875.385H287.515a10.3,10.3,0,0,1,0,7.265H335.3a3.632,3.632,0,0,0,0-7.265Z" transform="translate(4.125 23.774)"/><line class="d" x2="43.496" transform="translate(292.296 2902.791)"/><path class="c" d="M293.946,2859.331q-.041-.782-.041-1.581,0-1.41.123-2.776" transform="translate(7.019 14.531)"/><path class="c" d="M294.563,2856.994c2.259-9.346,8.836-16.108,16.6-16.108,9.629,0,17.434,10.408,17.434,23.245s-7.8,23.245-17.434,23.245c-8.088,0-14.89-7.344-16.859-17.3" transform="translate(7.198 8.151)"/><path class="c" d="M318.77,2873.109a10.835,10.835,0,0,0,4.976,1.21h3.02a3.632,3.632,0,0,0,3.461-4.734l-5.595-17.552a7.263,7.263,0,0,0-6.921-5.059h-.131" transform="translate(17.74 10.908)"/><path class="c" d="M298.226,2846.974H298.1a7.265,7.265,0,0,0-6.921,5.059l-5.595,17.552a3.632,3.632,0,0,0,3.461,4.734h3.02a10.84,10.84,0,0,0,4.977-1.21" transform="translate(3.17 10.908)"/><path class="e" d="M292.788,2841.09a14.5,14.5,0,0,0,6.565,9.876h25.783a14.5,14.5,0,0,0,6.565-9.876l.882-5.294H291.9Z" transform="translate(6.113 5.846)"/><path class="f" d="M296.28,2826.885v13l2.927,1.685a21.789,21.789,0,0,0,21.747,0l2.929-1.685v-13Z" transform="translate(8.094 1.811)"/><path class="f" d="M312.572,2822.885,290.78,2828.7l21.793,5.812,21.793-5.812Z" transform="translate(5.604 0)"/><line class="c" y2="7.264" transform="translate(339.968 2828.696)"/><path class="c" d="M309.717,2847.8l-2.906,7.264-2.906-7.264" transform="translate(11.547 11.28)"/><circle class="d" cx="7.264" cy="7.264" r="7.264" transform="translate(303.829 2846.727)"/><circle class="d" cx="7.264" cy="7.264" r="7.264" transform="translate(318.358 2846.727)"/><circle class="c" cx="2.179" cy="2.179" r="2.179" transform="translate(308.914 2851.812)"/><circle class="c" cx="2.179" cy="2.179" r="2.179" transform="translate(323.443 2851.812)"/><rect class="g" width="8.717" height="8.717" rx="1" transform="translate(321.263 2891.168)"/><line class="h" y2="5.811" transform="translate(325.622 2894.074)"/><rect class="g" width="8.717" height="8.717" rx="1" transform="translate(306.735 2891.168)"/><line class="h" y2="5.811" transform="translate(311.093 2894.074)"/><path class="c" d="M337.028,2843.7l-2.409-.8a4.1,4.1,0,0,1-2.6-2.6l-.8-2.408-.8,2.408a4.1,4.1,0,0,1-2.6,2.6l-2.41.8,2.41.8a4.1,4.1,0,0,1,2.6,2.6l.8,2.409.8-2.409a4.1,4.1,0,0,1,2.6-2.6Z" transform="translate(21.283 6.792)"/><path class="c" d="M290.028,2843.7l-2.409-.8a4.107,4.107,0,0,1-2.6-2.6l-.8-2.408-.8,2.408a4.11,4.11,0,0,1-2.6,2.6l-2.41.8,2.41.8a4.11,4.11,0,0,1,2.6,2.6l.8,2.409.8-2.409a4.106,4.106,0,0,1,2.6-2.6Z" transform="translate(0 6.792)"/></g></svg>