<svg xmlns="http://www.w3.org/2000/svg" width="80.91" height="88.17" viewBox="0 0 80.91 88.17"><path d="M57.89,49.9c0,12.83-7.8,23.24-17.44,23.24-8.08,0-14.89-7.34-16.86-17.3a30.53,30.53,0,0,1-.53-4.36V49.9a21.32,21.32,0,0,1,.12-2.78,30.48,30.48,0,0,1,.71-4.36c2.26-9.34,8.84-16.1,16.6-16.1C50.08,26.65,57.89,37.06,57.89,49.9Z" transform="translate(0)" fill="#cee9ff"/><path d="M20.11,49.9a31.56,31.56,0,0,1,3.38-14.4h-.12a7.26,7.26,0,0,0-6.93,5.06L10.85,58.11a3.63,3.63,0,0,0,2.36,4.56h0a3.77,3.77,0,0,0,1.1.17h3a10.73,10.73,0,0,0,5-1.21A32,32,0,0,1,20.11,49.9Z" transform="translate(0)" fill="#6bb8f5"/><path d="M70.06,58.11,64.47,40.56a7.27,7.27,0,0,0-6.92-5.06h-.14a31.31,31.31,0,0,1,3.38,14.4A32,32,0,0,1,58.6,61.63a10.73,10.73,0,0,0,5,1.21h3a3.62,3.62,0,0,0,3.63-3.61v0A3.42,3.42,0,0,0,70.06,58.11Z" transform="translate(0)" fill="#6bb8f5"/><path d="M62.24,87.67H11.4a10.28,10.28,0,0,0,0-14.53H62.24a7.26,7.26,0,0,1,7.27,7.25v0h0a7.26,7.26,0,0,1-7.26,7.26h0Z" transform="translate(0)" fill="none" stroke="#37474f" stroke-linecap="round" stroke-linejoin="round"/><path d="M61.52,76.77H13.74a10.34,10.34,0,0,1,0,7.27H61.52a3.64,3.64,0,0,0,0-7.27Z" transform="translate(0)" fill="none" stroke="#37474f" stroke-linecap="round" stroke-linejoin="round"/><line x1="14.39" y1="80.41" x2="57.88" y2="80.41" fill="none" stroke="#37474f" stroke-linecap="round" stroke-linejoin="round"/><path d="M23.06,51.48V49.9a21.32,21.32,0,0,1,.12-2.78" transform="translate(0)" fill="none" stroke="#37474f" stroke-linecap="round" stroke-linejoin="round"/><path d="M23.86,42.76c2.25-9.35,8.83-16.11,16.6-16.11,9.62,0,17.43,10.41,17.43,23.25s-7.8,23.24-17.43,23.24c-8.09,0-14.89-7.34-16.86-17.3" transform="translate(0)" fill="none" stroke="#37474f" stroke-linecap="round" stroke-linejoin="round"/><path d="M58.6,61.63a10.73,10.73,0,0,0,5,1.21h3a3.62,3.62,0,0,0,3.63-3.61v0a3.42,3.42,0,0,0-.17-1.1L64.47,40.56a7.27,7.27,0,0,0-6.92-5.06h-.14" transform="translate(0)" fill="none" stroke="#37474f" stroke-linecap="round" stroke-linejoin="round"/><path d="M23.49,35.5h-.12a7.26,7.26,0,0,0-6.93,5.06L10.85,58.11a3.63,3.63,0,0,0,2.36,4.56h0a3.77,3.77,0,0,0,1.1.17h3a10.73,10.73,0,0,0,5-1.21" transform="translate(0)" fill="none" stroke="#37474f" stroke-linecap="round" stroke-linejoin="round"/><path d="M21,24.55a14.49,14.49,0,0,0,6.56,9.88H53.34a14.5,14.5,0,0,0,6.57-9.88l.88-5.29H20.11Z" transform="translate(0)" fill="#cee9ff" stroke="#37474f" stroke-linecap="round" stroke-linejoin="round"/><path d="M26.47,6.31v13L29.4,21a21.81,21.81,0,0,0,21.74,0l2.93-1.69v-13Z" transform="translate(0)" fill="#1486e7" stroke="#37474f" stroke-linecap="round" stroke-linejoin="round"/><path d="M40.27.5,18.48,6.31l21.79,5.82L62.06,6.31Z" transform="translate(0)" fill="#1486e7" stroke="#37474f" stroke-linecap="round" stroke-linejoin="round"/><line x1="62.06" y1="6.31" x2="62.06" y2="13.58" fill="none" stroke="#37474f" stroke-linecap="round" stroke-linejoin="round"/><path d="M43.36,36.7,40.45,44l-2.9-7.26" transform="translate(0)" fill="none" stroke="#37474f" stroke-linecap="round" stroke-linejoin="round"/><circle cx="33.18" cy="31.61" r="7.26" fill="#fff" stroke="#37474f" stroke-linecap="round" stroke-linejoin="round"/><circle cx="47.71" cy="31.61" r="7.26" fill="#fff" stroke="#37474f" stroke-linecap="round" stroke-linejoin="round"/><circle cx="33.18" cy="31.61" r="2.18" fill="none" stroke="#37474f" stroke-linecap="round" stroke-linejoin="round"/><circle cx="47.71" cy="31.61" r="2.18" fill="none" stroke="#37474f" stroke-linecap="round" stroke-linejoin="round"/><rect x="43.35" y="68.78" width="8.72" height="8.72" rx="1" fill="#6bb8f5" stroke="#37474f" stroke-linecap="round" stroke-linejoin="round"/><line x1="47.71" y1="71.69" x2="47.71" y2="77.5" fill="none" stroke="#37474f" stroke-linecap="round" stroke-linejoin="round"/><rect x="28.83" y="68.78" width="8.72" height="8.72" rx="1" fill="#6bb8f5" stroke="#37474f" stroke-linecap="round" stroke-linejoin="round"/><line x1="33.18" y1="71.69" x2="33.18" y2="77.5" fill="none" stroke="#37474f" stroke-linecap="round" stroke-linejoin="round"/><path d="M80.41,28.11,78,27.31a4.06,4.06,0,0,1-2.6-2.6l-.8-2.41-.8,2.41a4.1,4.1,0,0,1-2.6,2.6l-2.41.8,2.41.8a4.06,4.06,0,0,1,2.6,2.6l.8,2.41.8-2.41a4.06,4.06,0,0,1,2.6-2.6Z" transform="translate(0)" fill="none" stroke="#37474f" stroke-linecap="round" stroke-linejoin="round"/><path d="M12.12,28.11l-2.41-.8a4.15,4.15,0,0,1-2.6-2.6l-.8-2.41-.8,2.41a4.1,4.1,0,0,1-2.6,2.6l-2.41.8,2.41.8a4.06,4.06,0,0,1,2.6,2.6l.8,2.41.8-2.41a4.1,4.1,0,0,1,2.6-2.6Z" transform="translate(0)" fill="none" stroke="#37474f" stroke-linecap="round" stroke-linejoin="round"/></svg>