<svg xmlns="http://www.w3.org/2000/svg" width="12.065" height="12.093" viewBox="0 0 12.065 12.093"><defs><style>.a{fill:#1486e7;}</style></defs><path class="a" d="M4.8-1.729c1.88,1.887,4.17,3.343,6.036,3.343A2.788,2.788,0,0,0,13,.663,1.955,1.955,0,0,0,13.556-.6a1.019,1.019,0,0,0-.437-.875L11.129-2.885a1.39,1.39,0,0,0-.793-.321,1.257,1.257,0,0,0-.854.465l-.465.458a.333.333,0,0,1-.246.1A.612.612,0,0,1,8.5-2.256,9.867,9.867,0,0,1,6.774-3.7,9.623,9.623,0,0,1,5.332-5.428a.607.607,0,0,1-.068-.26.333.333,0,0,1,.1-.246l.458-.472a1.256,1.256,0,0,0,.465-.861,1.459,1.459,0,0,0-.321-.793L4.566-10.021a1.1,1.1,0,0,0-.916-.458A1.849,1.849,0,0,0,2.4-9.919,2.9,2.9,0,0,0,1.49-7.738C1.49-5.865,2.919-3.6,4.8-1.729Z" transform="translate(-1.49 10.479)"/></svg>