<svg xmlns="http://www.w3.org/2000/svg" width="12" height="12.09" viewBox="0 0 12 12.09"><path d="M3.31,8.75c1.88,1.89,4.17,3.34,6,3.34a2.77,2.77,0,0,0,2.16-.95A2,2,0,0,0,12,9.88,1,1,0,0,0,11.6,9l-2-1.41a1.53,1.53,0,0,0-.79-.32A1.3,1.3,0,0,0,8,7.74l-.46.46a.39.39,0,0,1-.25.1A.6.6,0,0,1,7,8.22,9.88,9.88,0,0,1,5.28,6.78,10,10,0,0,1,3.84,5.05a.77.77,0,0,1-.07-.26.35.35,0,0,1,.1-.24l.46-.48a1.22,1.22,0,0,0,.47-.86,1.53,1.53,0,0,0-.32-.79l-1.4-2A1.09,1.09,0,0,0,2.16,0,1.86,1.86,0,0,0,.91.56,2.89,2.89,0,0,0,0,2.74C0,4.61,1.43,6.88,3.31,8.75Z" transform="translate(0 0)" fill="#1486e7"/></svg>