<svg xmlns="http://www.w3.org/2000/svg" width="71.456" height="80.262" viewBox="0 0 71.456 80.262"><defs><style>.a{fill:#1486e7;}.a,.c,.d{stroke:#37474f;stroke-linecap:round;stroke-linejoin:round;}.b{fill:#cee9ff;}.c{fill:none;}.d{fill:#6bb8f5;}</style></defs><g transform="translate(-565.405 -2244.885)"><rect class="a" width="20.13" height="5.033" transform="translate(608.682 2282.5)"/><rect class="a" width="3" height="21" rx="1" transform="translate(629.133 2274.517)"/><path class="a" d="M0,0H2.774a1,1,0,0,1,1,1V14.1a1,1,0,0,1-1,1H0a0,0,0,0,1,0,0V0A0,0,0,0,1,0,0Z" transform="translate(632.586 2277.468)"/><path class="a" d="M1,0H3.774a0,0,0,0,1,0,0V15.1a0,0,0,0,1,0,0H1a1,1,0,0,1-1-1V1A1,1,0,0,1,1,0Z" transform="translate(601.133 2277.468)"/><rect class="a" width="4" height="21" rx="1" transform="translate(605.133 2274.517)"/><path class="b" d="M612.293,2320.647v-12.31a6.3,6.3,0,0,1,1.325-3.863l2.182-2.8a25.159,25.159,0,0,0,5.3-15.449v-.174H610.553v4.4a3.779,3.779,0,0,1-3.774,3.774H605.52a3.77,3.77,0,0,1-3.71-3.146h-.064a3.779,3.779,0,0,1-3.774-3.774v-12.581a3.779,3.779,0,0,1,3.774-3.774h.064a3.77,3.77,0,0,1,3.71-3.145h1.258a3.779,3.779,0,0,1,3.774,3.774v4.4h9.231a22.637,22.637,0,0,0-21.33-15.1h0a22.647,22.647,0,0,0-22.646,22.646v1.258l-7.112,8.636a1.258,1.258,0,0,0,.971,2.058h7.4v8.178a6.29,6.29,0,0,0,6.291,6.291h5.662a3.145,3.145,0,0,1,3.145,3.146v7.549" transform="translate(0.645 4.001)"/><path class="c" d="M577.324,2272.394a22.593,22.593,0,0,0-1.517,8.167v1.258l-7.112,8.636a1.258,1.258,0,0,0,.971,2.058h7.4v8.178a6.29,6.29,0,0,0,6.291,6.291h5.662a3.145,3.145,0,0,1,3.145,3.146v7.549" transform="translate(0.645 6.972)"/><path class="c" d="M579.932,2266.394a22.764,22.764,0,0,0-2.942,3.774" transform="translate(2.861 5.423)"/><path class="c" d="M616.191,2275.983a22.637,22.637,0,0,0-21.33-15.1h0a22.542,22.542,0,0,0-12.54,3.786" transform="translate(4.238 4.001)"/><path class="c" d="M603.288,2315.484v-12.31a6.3,6.3,0,0,1,1.325-3.863l2.182-2.8a25.159,25.159,0,0,0,5.3-15.449v-.174" transform="translate(9.65 9.164)"/><path class="d" d="M568.421,2275.581l3.774-15.1h-6.291l15.1-15.1-3.774,15.1h6.291Z" transform="translate(0)"/><circle class="c" cx="6.291" cy="6.291" r="6.291" transform="translate(613.085 2252.305)"/><line class="c" y1="5.033" transform="translate(619.376 2256.079)"/><line class="c" x2="5.033" transform="translate(616.859 2258.596)"/></g></svg>