<svg xmlns="http://www.w3.org/2000/svg" width="71.5" height="80.26" viewBox="0 0 71.5 80.26"><rect x="43.28" y="37.62" width="20.13" height="5.03" fill="#1486e7" stroke="#37474f" stroke-linecap="round" stroke-linejoin="round"/><rect x="63.73" y="29.64" width="3" height="21" rx="1" fill="#1486e7" stroke="#37474f" stroke-linecap="round" stroke-linejoin="round"/><path d="M67.18,32.58H70a1,1,0,0,1,1,1v13.1a1,1,0,0,1-1,1H67.18Z" fill="#1486e7" stroke="#37474f" stroke-linecap="round" stroke-linejoin="round"/><path d="M36.73,32.58H39.5v15.1H36.73a1,1,0,0,1-1-1V33.58A1,1,0,0,1,36.73,32.58Z" fill="#1486e7" stroke="#37474f" stroke-linecap="round" stroke-linejoin="round"/><rect x="39.73" y="29.64" width="4" height="21" rx="1" fill="#1486e7" stroke="#37474f" stroke-linecap="round" stroke-linejoin="round"/><path d="M47.53,79.76V67.45a6.27,6.27,0,0,1,1.33-3.86L51,60.79a25.14,25.14,0,0,0,5.3-15.45v-.17H45.79v4.4A3.77,3.77,0,0,1,42,53.34H40.76a3.76,3.76,0,0,1-3.71-3.15h0a3.77,3.77,0,0,1-3.78-3.76h0V33.84A3.77,3.77,0,0,1,37,30.07h.07a3.76,3.76,0,0,1,3.71-3.15H42a3.77,3.77,0,0,1,3.77,3.77h0v4.4H55A22.63,22.63,0,0,0,33.69,20h0A22.66,22.66,0,0,0,11.05,42.64V43.9L3.93,52.53a1.26,1.26,0,0,0,1,2.06h7.4v8.18a6.29,6.29,0,0,0,6.29,6.29h5.66a3.15,3.15,0,0,1,3.14,3.14h0v7.55" fill="#cee9ff"/><path d="M12.56,34.48a22.62,22.62,0,0,0-1.51,8.17v1.26L3.93,52.54a1.26,1.26,0,0,0,.18,1.77,1.23,1.23,0,0,0,.8.29h7.4v8.18a6.29,6.29,0,0,0,6.28,6.29h5.67a3.15,3.15,0,0,1,3.14,3.14h0v7.54" fill="none" stroke="#37474f" stroke-linecap="round" stroke-linejoin="round"/><path d="M17.39,26.93a22.41,22.41,0,0,0-2.94,3.78" fill="none" stroke="#37474f" stroke-linecap="round" stroke-linejoin="round"/><path d="M55,35.1A22.64,22.64,0,0,0,33.69,20h0a22.56,22.56,0,0,0-12.54,3.78" fill="none" stroke="#37474f" stroke-linecap="round" stroke-linejoin="round"/><path d="M47.53,79.76V67.45a6.27,6.27,0,0,1,1.33-3.86L51,60.79a25.14,25.14,0,0,0,5.3-15.45v-.17" fill="none" stroke="#37474f" stroke-linecap="round" stroke-linejoin="round"/><path d="M3,30.7,6.79,15.6H.5L15.6.5,11.82,15.6h6.3Z" fill="#6bb8f5" stroke="#37474f" stroke-linecap="round" stroke-linejoin="round"/><circle cx="53.97" cy="13.72" r="6.29" fill="none" stroke="#37474f" stroke-linecap="round" stroke-linejoin="round"/><line x1="53.97" y1="16.23" x2="53.97" y2="11.2" fill="none" stroke="#37474f" stroke-linecap="round" stroke-linejoin="round"/><line x1="51.46" y1="13.72" x2="56.49" y2="13.72" fill="none" stroke="#37474f" stroke-linecap="round" stroke-linejoin="round"/></svg>