<svg xmlns="http://www.w3.org/2000/svg" width="48" height="48" viewBox="0 0 48 48"><circle cx="24" cy="24" r="24" fill="none"/><circle cx="24" cy="24" r="23.5" fill="none" stroke="#e8f4fd" stroke-miterlimit="10"/><path d="M32,19.54a6.56,6.56,0,0,1-1.89.52,3.32,3.32,0,0,0,1.45-1.82,6.56,6.56,0,0,1-2.09.8,3.28,3.28,0,0,0-5.59,3,9.29,9.29,0,0,1-6.76-3.43,3.27,3.27,0,0,0,1,4.38,3.12,3.12,0,0,1-1.49-.41,3.28,3.28,0,0,0,2.64,3.26,3.36,3.36,0,0,1-1.48.06,3.29,3.29,0,0,0,3.07,2.28A6.64,6.64,0,0,1,16,29.53a9.34,9.34,0,0,0,14.37-7.75,5,5,0,0,0,0-.55A6.55,6.55,0,0,0,32,19.54Z" fill="#1486e7"/></svg>